<svg width="1024" height="512" xmlns="http://www.w3.org/2000/svg">
  <defs>
    <!-- Ocean gradient -->
    <radialGradient id="oceanBase" cx="40%" cy="30%" r="70%">
      <stop offset="0%" style="stop-color:#87CEEB;stop-opacity:1" />
      <stop offset="30%" style="stop-color:#4682B4;stop-opacity:1" />
      <stop offset="60%" style="stop-color:#1E90FF;stop-opacity:1" />
      <stop offset="85%" style="stop-color:#0066CC;stop-opacity:1" />
      <stop offset="100%" style="stop-color:#003366;stop-opacity:1" />
    </radialGradient>

    <!-- Continent gradient -->
    <linearGradient id="continentGreen" x1="0%" y1="0%" x2="100%" y2="100%">
      <stop offset="0%" style="stop-color:#90EE90;stop-opacity:1" />
      <stop offset="30%" style="stop-color:#228B22;stop-opacity:1" />
      <stop offset="60%" style="stop-color:#006400;stop-opacity:1" />
      <stop offset="100%" style="stop-color:#013220;stop-opacity:1" />
    </linearGradient>

    <!-- Desert gradient -->
    <linearGradient id="desertBrown" x1="0%" y1="0%" x2="100%" y2="100%">
      <stop offset="0%" style="stop-color:#F4E4BC;stop-opacity:1" />
      <stop offset="40%" style="stop-color:#D2B48C;stop-opacity:1" />
      <stop offset="70%" style="stop-color:#CD853F;stop-opacity:1" />
      <stop offset="100%" style="stop-color:#8B4513;stop-opacity:1" />
    </linearGradient>

    <!-- Cloud gradient -->
    <radialGradient id="cloudWhite" cx="50%" cy="50%" r="80%">
      <stop offset="0%" style="stop-color:#FFFFFF;stop-opacity:0.9" />
      <stop offset="60%" style="stop-color:#F0F8FF;stop-opacity:0.7" />
      <stop offset="100%" style="stop-color:#E6F3FF;stop-opacity:0.3" />
    </radialGradient>

    <!-- Ice cap gradient -->
    <radialGradient id="iceCap" cx="50%" cy="50%" r="100%">
      <stop offset="0%" style="stop-color:#FFFFFF;stop-opacity:1" />
      <stop offset="70%" style="stop-color:#F0F8FF;stop-opacity:0.8" />
      <stop offset="100%" style="stop-color:#B0E0E6;stop-opacity:0.6" />
    </radialGradient>
  </defs>

  <!-- Ocean base -->
  <rect width="100%" height="100%" fill="url(#oceanBase)"/>

  <!-- Africa/Europe -->
  <path d="M450,180 Q520,160 580,180 L620,220 Q600,260 580,280 Q540,300 500,290 Q460,280 430,250 Q420,220 450,180"
        fill="url(#continentGreen)" opacity="0.9"/>
  <path d="M480,200 Q520,190 550,200 L570,230 Q550,250 520,240 Q490,235 480,200"
        fill="url(#desertBrown)" opacity="0.8"/>

  <!-- Asia -->
  <path d="M600,150 Q700,130 800,150 Q850,170 900,180 Q920,200 900,230 Q850,250 800,240 Q750,235 700,240 Q650,245 600,230 Q580,200 600,150"
        fill="url(#continentGreen)" opacity="0.9"/>
  <path d="M750,160 Q800,150 850,160 L880,190 Q860,210 830,200 Q780,195 750,160"
        fill="url(#desertBrown)" opacity="0.7"/>

  <!-- North America -->
  <path d="M150,120 Q250,100 350,120 Q400,140 420,180 Q400,220 350,230 Q300,240 250,230 Q200,220 150,200 Q130,160 150,120"
        fill="url(#continentGreen)" opacity="0.9"/>
  <path d="M200,140 Q280,130 350,140 L380,170 Q350,190 280,180 Q200,175 200,140"
        fill="url(#desertBrown)" opacity="0.6"/>

  <!-- South America -->
  <path d="M250,280 Q320,270 380,290 Q400,320 390,360 Q380,400 360,430 Q320,450 280,440 Q240,430 220,400 Q210,370 220,340 Q230,310 250,280"
        fill="url(#continentGreen)" opacity="0.9"/>

  <!-- Australia -->
  <path d="M750,350 Q820,340 880,350 Q920,370 910,400 Q890,420 850,410 Q800,405 750,400 Q720,380 750,350"
        fill="url(#continentGreen)" opacity="0.8"/>
  <path d="M780,360 Q830,355 870,360 L890,380 Q870,395 830,390 Q780,385 780,360"
        fill="url(#desertBrown)" opacity="0.9"/>

  <!-- Antarctica (bottom) -->
  <ellipse cx="512" cy="480" rx="400" ry="30" fill="url(#iceCap)" opacity="0.9"/>

  <!-- Arctic (top) -->
  <ellipse cx="512" cy="32" rx="350" ry="28" fill="url(#iceCap)" opacity="0.8"/>

  <!-- Cloud formations -->
  <ellipse cx="200" cy="100" rx="80" ry="25" fill="url(#cloudWhite)" opacity="0.7" transform="rotate(15 200 100)"/>
  <ellipse cx="600" cy="80" rx="100" ry="30" fill="url(#cloudWhite)" opacity="0.6" transform="rotate(-10 600 80)"/>
  <ellipse cx="800" cy="300" rx="90" ry="35" fill="url(#cloudWhite)" opacity="0.8" transform="rotate(25 800 300)"/>
  <ellipse cx="100" cy="250" rx="70" ry="20" fill="url(#cloudWhite)" opacity="0.7" transform="rotate(-20 100 250)"/>
  <ellipse cx="400" cy="400" rx="85" ry="30" fill="url(#cloudWhite)" opacity="0.6" transform="rotate(10 400 400)"/>
  <ellipse cx="900" cy="150" rx="60" ry="18" fill="url(#cloudWhite)" opacity="0.8" transform="rotate(40 900 150)"/>

  <!-- Hurricane/storm systems -->
  <circle cx="300" cy="200" r="35" fill="url(#cloudWhite)" opacity="0.8"/>
  <path d="M280,180 Q300,170 320,180 Q340,200 320,220 Q300,230 280,220 Q260,200 280,180"
        fill="#FFFFFF" opacity="0.9"/>

  <!-- Ocean depth variations -->
  <ellipse cx="100" cy="300" rx="50" ry="80" fill="#003366" opacity="0.4"/>
  <ellipse cx="700" cy="400" rx="60" ry="40" fill="#0066CC" opacity="0.3"/>
  <ellipse cx="950" cy="200" rx="40" ry="60" fill="#003366" opacity="0.5"/>

  <!-- City lights effect (night side) -->
  <circle cx="180" cy="160" r="3" fill="#FFFF99" opacity="0.6"/>
  <circle cx="320" cy="170" r="2" fill="#FFFF99" opacity="0.7"/>
  <circle cx="280" cy="200" r="2" fill="#FFFF99" opacity="0.5"/>
  <circle cx="600" cy="190" r="3" fill="#FFFF99" opacity="0.6"/>
  <circle cx="750" cy="210" r="2" fill="#FFFF99" opacity="0.8"/>
</svg>