<svg width="1024" height="512" xmlns="http://www.w3.org/2000/svg">
  <defs>
    <radialGradient id="earthGradient" cx="0.3" cy="0.3" r="0.8">
      <stop offset="0%" style="stop-color:#87CEEB;stop-opacity:1" />
      <stop offset="50%" style="stop-color:#6B93D6;stop-opacity:1" />
      <stop offset="100%" style="stop-color:#191970;stop-opacity:1" />
    </radialGradient>
  </defs>
  <rect width="100%" height="100%" fill="url(#earthGradient)"/>
  <!-- Continents -->
  <path d="M100,200 Q200,180 300,200 L350,250 Q300,280 200,260 Q150,240 100,200" fill="#228B22" opacity="0.8"/>
  <path d="M400,150 Q500,130 600,150 L650,200 Q600,230 500,210 Q450,180 400,150" fill="#32CD32" opacity="0.7"/>
  <path d="M700,300 Q800,280 900,300 L950,350 Q900,380 800,360 Q750,330 700,300" fill="#228B22" opacity="0.8"/>
  <path d="M50,350 Q150,330 250,350 L300,400 Q250,430 150,410 Q100,380 50,350" fill="#2E8B57" opacity="0.7"/>
  <path d="M500,250 Q600,230 700,250 L750,300 Q700,330 600,310 Q550,280 500,250" fill="#228B22" opacity="0.6"/>
  <!-- Ice caps -->
  <ellipse cx="512" cy="50" rx="300" ry="30" fill="#F0F8FF" opacity="0.7"/>
  <ellipse cx="512" cy="462" rx="250" ry="25" fill="#F0F8FF" opacity="0.6"/>
  <!-- Cloud formations -->
  <path d="M0,120 Q200,100 400,120 Q600,140 800,120 Q900,110 1024,120" stroke="#FFFFFF" stroke-width="8" fill="none" opacity="0.6"/>
  <path d="M0,380 Q300,360 600,380 Q800,400 1024,380" stroke="#F5F5F5" stroke-width="6" fill="none" opacity="0.5"/>
  <ellipse cx="200" cy="180" rx="80" ry="20" fill="#FFFFFF" opacity="0.4"/>
  <ellipse cx="700" cy="320" rx="100" ry="25" fill="#F8F8FF" opacity="0.4"/>
</svg>