<svg width="1024" height="512" xmlns="http://www.w3.org/2000/svg">
  <defs>
    <radialGradient id="marsGradient" cx="0.3" cy="0.3" r="0.8">
      <stop offset="0%" style="stop-color:#FF6347;stop-opacity:1" />
      <stop offset="40%" style="stop-color:#CD5C5C;stop-opacity:1" />
      <stop offset="80%" style="stop-color:#A0522D;stop-opacity:1" />
      <stop offset="100%" style="stop-color:#8B4513;stop-opacity:1" />
    </radialGradient>
  </defs>
  <rect width="100%" height="100%" fill="url(#marsGradient)"/>
  <!-- Polar ice caps -->
  <ellipse cx="512" cy="30" rx="200" ry="20" fill="#F0F8FF" opacity="0.8"/>
  <ellipse cx="512" cy="482" rx="180" ry="18" fill="#F5F5F5" opacity="0.7"/>
  <!-- Valleys and canyons -->
  <path d="M200,200 Q400,180 600,200 Q800,220 1024,200" stroke="#8B4513" stroke-width="4" fill="none" opacity="0.6"/>
  <path d="M0,300 Q300,280 600,300 Q800,320 1024,300" stroke="#A0522D" stroke-width="6" fill="none" opacity="0.7"/>
  <!-- Olympus Mons (large volcano) -->
  <circle cx="300" cy="250" r="50" fill="#DC143C" opacity="0.8"/>
  <circle cx="300" cy="250" r="30" fill="#B22222" opacity="0.6"/>
  <!-- Dust storms and surface features -->
  <ellipse cx="700" cy="150" rx="80" ry="30" fill="#DEB887" opacity="0.4"/>
  <ellipse cx="150" cy="350" rx="100" ry="40" fill="#D2691E" opacity="0.3"/>
  <ellipse cx="850" cy="300" rx="60" ry="25" fill="#CD853F" opacity="0.5"/>
  <!-- Impact craters -->
  <circle cx="500" cy="120" r="15" fill="#8B4513" opacity="0.6"/>
  <circle cx="800" cy="400" r="20" fill="#A0522D" opacity="0.7"/>
  <circle cx="150" cy="150" r="12" fill="#654321" opacity="0.5"/>
</svg>