<svg width="1024" height="512" xmlns="http://www.w3.org/2000/svg">
  <defs>
    <radialGradient id="neptuneGradient" cx="0.3" cy="0.3" r="0.8">
      <stop offset="0%" style="stop-color:#4169E1;stop-opacity:1" />
      <stop offset="40%" style="stop-color:#4B70DD;stop-opacity:1" />
      <stop offset="80%" style="stop-color:#1E90FF;stop-opacity:1" />
      <stop offset="100%" style="stop-color:#000080;stop-opacity:1" />
    </radialGradient>
  </defs>
  <rect width="100%" height="100%" fill="url(#neptuneGradient)"/>
  <!-- Atmospheric bands -->
  <rect x="0" y="80" width="1024" height="20" fill="#6495ED" opacity="0.6"/>
  <rect x="0" y="120" width="1024" height="15" fill="#4682B4" opacity="0.5"/>
  <rect x="0" y="155" width="1024" height="25" fill="#4169E1" opacity="0.7"/>
  <rect x="0" y="200" width="1024" height="30" fill="#1E90FF" opacity="0.8"/>
  <rect x="0" y="250" width="1024" height="20" fill="#4B70DD" opacity="0.6"/>
  <rect x="0" y="290" width="1024" height="35" fill="#4682B4" opacity="0.7"/>
  <rect x="0" y="345" width="1024" height="25" fill="#6495ED" opacity="0.5"/>
  <rect x="0" y="385" width="1024" height="30" fill="#000080" opacity="0.8"/>
  <rect x="0" y="430" width="1024" height="20" fill="#191970" opacity="0.6"/>
  <!-- Great Dark Spot -->
  <ellipse cx="400" cy="200" rx="90" ry="60" fill="#000080" opacity="0.9"/>
  <ellipse cx="400" cy="200" rx="70" ry="45" fill="#191970" opacity="0.7"/>
  <ellipse cx="400" cy="200" rx="50" ry="30" fill="#00008B" opacity="0.5"/>
  <!-- Wind features and storms -->
  <ellipse cx="700" cy="300" rx="60" ry="30" fill="#4682B4" opacity="0.6"/>
  <ellipse cx="150" cy="150" rx="40" ry="20" fill="#6495ED" opacity="0.4"/>
  <ellipse cx="850" cy="350" rx="70" ry="35" fill="#1E90FF" opacity="0.3"/>
  <!-- High-speed wind streams -->
  <path d="M0,180 Q200,170 400,180 Q600,190 800,180 Q900,175 1024,180" stroke="#87CEEB" stroke-width="2" fill="none" opacity="0.5"/>
  <path d="M0,320 Q300,310 600,320 Q800,330 1024,320" stroke="#B0C4DE" stroke-width="3" fill="none" opacity="0.4"/>
  <path d="M0,400 Q400,390 800,400 Q900,405 1024,400" stroke="#4682B4" stroke-width="1" fill="none" opacity="0.6"/>
</svg>