<svg width="1024" height="512" xmlns="http://www.w3.org/2000/svg">
  <defs>
    <!-- Simplified Saturn base gradient -->
    <linearGradient id="saturnBase" x1="0%" y1="0%" x2="100%" y2="100%">
      <stop offset="0%" style="stop-color:#FFF8DC"/>
      <stop offset="25%" style="stop-color:#FAD5A5"/>
      <stop offset="50%" style="stop-color:#F0E68C"/>
      <stop offset="75%" style="stop-color:#DAA520"/>
      <stop offset="100%" style="stop-color:#B8860B"/>
    </linearGradient>

    <!-- Light band -->
    <linearGradient id="lightBand" x1="0%" y1="0%" x2="100%" y2="0%">
      <stop offset="0%" style="stop-color:#FFFACD"/>
      <stop offset="50%" style="stop-color:#FFF8DC"/>
      <stop offset="100%" style="stop-color:#FFFACD"/>
    </linearGradient>

    <!-- Dark band -->
    <linearGradient id="darkBand" x1="0%" y1="0%" x2="100%" y2="0%">
      <stop offset="0%" style="stop-color:#DAA520"/>
      <stop offset="50%" style="stop-color:#B8860B"/>
      <stop offset="100%" style="stop-color:#DAA520"/>
    </linearGradient>
  </defs>

  <!-- Base Saturn surface -->
  <rect width="1024" height="512" fill="url(#saturnBase)"/>

  <!-- Horizontal bands -->
  <rect x="0" y="60" width="1024" height="35" fill="url(#lightBand)" opacity="0.8"/>
  <rect x="0" y="95" width="1024" height="30" fill="url(#darkBand)" opacity="0.7"/>
  <rect x="0" y="125" width="1024" height="40" fill="url(#lightBand)" opacity="0.9"/>
  <rect x="0" y="165" width="1024" height="25" fill="url(#darkBand)" opacity="0.8"/>
  <rect x="0" y="190" width="1024" height="35" fill="url(#lightBand)" opacity="0.9"/>
  <rect x="0" y="225" width="1024" height="30" fill="url(#darkBand)" opacity="0.7"/>
  <rect x="0" y="255" width="1024" height="40" fill="url(#lightBand)" opacity="0.8"/>
  <rect x="0" y="295" width="1024" height="25" fill="url(#darkBand)" opacity="0.8"/>
  <rect x="0" y="320" width="1024" height="35" fill="url(#lightBand)" opacity="0.9"/>
  <rect x="0" y="355" width="1024" height="30" fill="url(#darkBand)" opacity="0.7"/>
  <rect x="0" y="385" width="1024" height="35" fill="url(#lightBand)" opacity="0.8"/>
  <rect x="0" y="420" width="1024" height="30" fill="url(#darkBand)" opacity="0.7"/>

  <!-- Storm features -->
  <ellipse cx="200" cy="180" rx="30" ry="15" fill="#FFFACD" opacity="0.7"/>
  <ellipse cx="500" cy="280" rx="35" ry="18" fill="#F0E68C" opacity="0.8"/>
  <ellipse cx="750" cy="200" rx="25" ry="12" fill="#FFFACD" opacity="0.6"/>
  <ellipse cx="150" cy="320" rx="20" ry="10" fill="#FFF8DC" opacity="0.8"/>
  <ellipse cx="850" cy="350" rx="30" ry="15" fill="#F0E68C" opacity="0.7"/>

  <!-- Atmospheric variations -->
  <ellipse cx="350" cy="150" rx="15" ry="8" fill="#FFF8DC" opacity="0.8"/>
  <ellipse cx="650" cy="250" rx="18" ry="9" fill="#FFFACD" opacity="0.7"/>
  <ellipse cx="400" cy="350" rx="12" ry="6" fill="#F0E68C" opacity="0.9"/>
  <ellipse cx="800" cy="180" rx="16" ry="8" fill="#FFF8DC" opacity="0.6"/>
</svg>