<svg width="1024" height="512" xmlns="http://www.w3.org/2000/svg">
  <defs>
    <linearGradient id="saturnGradient" x1="0%" y1="0%" x2="0%" y2="100%">
      <stop offset="0%" style="stop-color:#FFEBCD;stop-opacity:1" />
      <stop offset="25%" style="stop-color:#F5DEB3;stop-opacity:1" />
      <stop offset="50%" style="stop-color:#FAD5A5;stop-opacity:1" />
      <stop offset="75%" style="stop-color:#DEB887;stop-opacity:1" />
      <stop offset="100%" style="stop-color:#D2B48C;stop-opacity:1" />
    </linearGradient>
  </defs>
  <rect width="100%" height="100%" fill="url(#saturnGradient)"/>
  <!-- Atmospheric bands -->
  <rect x="0" y="60" width="1024" height="25" fill="#DEB887" opacity="0.6"/>
  <rect x="0" y="95" width="1024" height="20" fill="#D2B48C" opacity="0.5"/>
  <rect x="0" y="130" width="1024" height="30" fill="#F5DEB3" opacity="0.7"/>
  <rect x="0" y="180" width="1024" height="35" fill="#FAD5A5" opacity="0.8"/>
  <rect x="0" y="235" width="1024" height="25" fill="#FFEBCD" opacity="0.6"/>
  <rect x="0" y="280" width="1024" height="40" fill="#F5DEB3" opacity="0.7"/>
  <rect x="0" y="340" width="1024" height="30" fill="#DEB887" opacity="0.5"/>
  <rect x="0" y="385" width="1024" height="25" fill="#D2B48C" opacity="0.6"/>
  <rect x="0" y="425" width="1024" height="35" fill="#FFEBCD" opacity="0.8"/>
  <!-- Hexagonal storm at north pole -->
  <polygon points="512,20 532,35 532,55 512,70 492,55 492,35" fill="#F4A460" opacity="0.7"/>
  <!-- Atmospheric features -->
  <ellipse cx="200" cy="180" rx="60" ry="25" fill="#CD853F" opacity="0.4"/>
  <ellipse cx="700" cy="320" rx="80" ry="35" fill="#D2691E" opacity="0.3"/>
  <ellipse cx="450" cy="400" rx="50" ry="20" fill="#A0522D" opacity="0.5"/>
  <!-- Band variations and storms -->
  <path d="M0,150 Q300,140 600,150 Q800,160 1024,150" stroke="#D2691E" stroke-width="2" fill="none" opacity="0.4"/>
  <path d="M0,300 Q200,290 400,300 Q600,310 800,300 Q900,295 1024,300" stroke="#CD853F" stroke-width="1" fill="none" opacity="0.3"/>
  <!-- Ring shadows (if visible from this angle) -->
  <rect x="0" y="240" width="1024" height="8" fill="#8B4513" opacity="0.2"/>
  <rect x="0" y="260" width="1024" height="5" fill="#654321" opacity="0.1"/>
</svg>