<svg width="1024" height="512" xmlns="http://www.w3.org/2000/svg">
  <defs>
    <radialGradient id="uranusGradient" cx="0.3" cy="0.3" r="0.8">
      <stop offset="0%" style="stop-color:#87CEEB;stop-opacity:1" />
      <stop offset="40%" style="stop-color:#4FD0E3;stop-opacity:1" />
      <stop offset="80%" style="stop-color:#20B2AA;stop-opacity:1" />
      <stop offset="100%" style="stop-color:#008B8B;stop-opacity:1" />
    </radialGradient>
  </defs>
  <rect width="100%" height="100%" fill="url(#uranusGradient)"/>
  <!-- Faint atmospheric bands -->
  <rect x="0" y="100" width="1024" height="15" fill="#5F9EA0" opacity="0.4"/>
  <rect x="0" y="140" width="1024" height="12" fill="#48D1CC" opacity="0.3"/>
  <rect x="0" y="180" width="1024" height="20" fill="#40E0D0" opacity="0.5"/>
  <rect x="0" y="220" width="1024" height="18" fill="#00CED1" opacity="0.4"/>
  <rect x="0" y="260" width="1024" height="15" fill="#5F9EA0" opacity="0.3"/>
  <rect x="0" y="300" width="1024" height="22" fill="#4682B4" opacity="0.6"/>
  <rect x="0" y="340" width="1024" height="16" fill="#20B2AA" opacity="0.4"/>
  <rect x="0" y="380" width="1024" height="20" fill="#008B8B" opacity="0.5"/>
  <!-- Methane clouds -->
  <ellipse cx="300" cy="150" rx="80" ry="30" fill="#87CEEB" opacity="0.5"/>
  <ellipse cx="700" cy="280" rx="100" ry="40" fill="#4FD0E3" opacity="0.4"/>
  <ellipse cx="150" cy="350" rx="60" ry="25" fill="#48D1CC" opacity="0.3"/>
  <ellipse cx="850" cy="200" rx="70" ry="35" fill="#40E0D0" opacity="0.6"/>
  <!-- Subtle atmospheric features -->
  <path d="M0,200 Q300,190 600,200 Q800,210 1024,200" stroke="#5F9EA0" stroke-width="1" fill="none" opacity="0.3"/>
  <path d="M0,320 Q400,310 800,320 Q900,325 1024,320" stroke="#20B2AA" stroke-width="1" fill="none" opacity="0.4"/>
</svg>