<svg width="1024" height="512" xmlns="http://www.w3.org/2000/svg">
  <defs>
    <radialGradient id="venusGradient" cx="0.3" cy="0.3" r="0.8">
      <stop offset="0%" style="stop-color:#FFEB3B;stop-opacity:1" />
      <stop offset="30%" style="stop-color:#FFC649;stop-opacity:1" />
      <stop offset="70%" style="stop-color:#FF9800;stop-opacity:1" />
      <stop offset="100%" style="stop-color:#E65100;stop-opacity:1" />
    </radialGradient>
    <linearGradient id="venusCloud1" x1="0%" y1="0%" x2="100%" y2="0%">
      <stop offset="0%" style="stop-color:#FFD54F;stop-opacity:0.6" />
      <stop offset="100%" style="stop-color:#FFAB40;stop-opacity:0.3" />
    </linearGradient>
  </defs>
  <rect width="100%" height="100%" fill="url(#venusGradient)"/>
  <!-- Atmospheric bands -->
  <path d="M0,100 Q256,80 512,100 T1024,100" stroke="url(#venusCloud1)" stroke-width="20" fill="none" opacity="0.7"/>
  <path d="M0,200 Q200,220 400,200 Q600,180 800,200 Q900,210 1024,200" stroke="#FFCC02" stroke-width="15" fill="none" opacity="0.6"/>
  <path d="M0,300 Q300,280 600,300 Q800,320 1024,300" stroke="#FFB300" stroke-width="12" fill="none" opacity="0.5"/>
  <path d="M0,400 Q400,420 800,400 Q900,390 1024,400" stroke="#FF8F00" stroke-width="8" fill="none" opacity="0.4"/>
  <!-- Cloud swirls -->
  <ellipse cx="300" cy="150" rx="80" ry="30" fill="#FFCA28" opacity="0.4"/>
  <ellipse cx="700" cy="250" rx="100" ry="40" fill="#FFC107" opacity="0.5"/>
  <ellipse cx="150" cy="350" rx="60" ry="25" fill="#FFB74D" opacity="0.3"/>
</svg>